<svg xmlns="http://www.w3.org/2000/svg" width="35" height="70" viewBox="0 0 35 70" fill="none">
    <path d="M28.3208 18.3458C28.0497 18.0725 27.7271 17.8555 27.3717 17.7074C27.0163 17.5593 26.635 17.4831 26.25 17.4831C25.865 17.4831 25.4837 17.5593 25.1283 17.7074C24.7729 17.8555 24.4503 18.0725 24.1792 18.3458L9.59584 32.9292C9.32246 33.2003 9.10548 33.5229 8.95741 33.8783C8.80933 34.2337 8.73309 34.615 8.73309 35C8.73309 35.385 8.80933 35.7663 8.95741 36.1217C9.10548 36.4771 9.32246 36.7997 9.59584 37.0708L24.1792 51.6542C24.4503 51.9275 24.7729 52.1445 25.1283 52.2926C25.4837 52.4407 25.865 52.5169 26.25 52.5169C26.635 52.5169 27.0163 52.4407 27.3717 52.2926C27.7271 52.1445 28.0497 51.9275 28.3208 51.6542C28.5942 51.383 28.8112 51.0604 28.9593 50.705C29.1073 50.3496 29.1836 49.9684 29.1836 49.5833C29.1836 49.1983 29.1073 48.8171 28.9593 48.4617C28.8112 48.1062 28.5942 47.7837 28.3208 47.5125L15.7792 35L28.3208 22.4875C28.5942 22.2164 28.8112 21.8938 28.9593 21.5384C29.1073 21.1829 29.1836 20.8017 29.1836 20.4167C29.1836 20.0316 29.1073 19.6504 28.9593 19.295C28.8112 18.9396 28.5942 18.617 28.3208 18.3458Z" fill="white"/>
</svg>
